<svg width="141" height="34" viewBox="0 0 141 34" fill="none" xmlns="http://www.w3.org/2000/svg">
<path d="M30.5106 0L32.7557 6.90983H40.0212L34.1433 11.1803L36.3885 18.0902L30.5106 13.8197L24.6327 18.0902L26.8779 11.1803L21 6.90983H28.2655L30.5106 0Z" fill="#FFB900"/>
<path d="M55.5106 0L57.7557 6.90983H65.0212L59.1433 11.1803L61.3885 18.0902L55.5106 13.8197L49.6327 18.0902L51.8779 11.1803L46 6.90983H53.2655L55.5106 0Z" fill="#FFB900"/>
<path d="M80.5088 0L82.7538 6.90983H90.0198L84.1418 11.1803L86.3868 18.0902L80.5088 13.8197L74.6308 18.0902L76.8758 11.1803L70.9978 6.90983H78.2638L80.5088 0Z" fill="#FFB900"/>
<path d="M105.509 0L107.754 6.90983H115.02L109.142 11.1803L111.387 18.0902L105.509 13.8197L99.631 18.0902L101.876 11.1803L95.9978 6.90983H103.264L105.509 0Z" fill="#FFB900"/>
<path d="M130.509 0L132.754 6.90983H140.02L134.142 11.1803L136.387 18.0902L130.509 13.8197L124.631 18.0902L126.876 11.1803L120.998 6.90983H128.264L130.509 0Z" fill="#FFB900"/>
<path fill-rule="evenodd" clip-rule="evenodd" d="M4.83098 3C4.67345 3.00118 4.47583 3.00322 4.20726 3.00649C3.7786 3.01781 3.45339 3.04374 3.13469 3.10035C2.74635 3.16923 2.39477 3.28259 2.05863 3.45191C1.71703 3.62358 1.4042 3.84822 1.13279 4.11681C0.86168 4.38453 0.63417 4.69409 0.45967 5.03282C0.28817 5.36588 0.17332 5.71428 0.10301 6.10005C0.0456002 6.41582 0.0195501 6.73674 0.00816011 7.15627L0.00426006 7.33105C0.00322006 7.39105 0.00242014 7.45315 0.00186014 7.51851L0 7.89816L2.00272e-05 14.1074L0.00118017 14.3782C0.00207017 14.5506 0.00421011 14.699 0.00816011 14.8415C0.0195801 15.2607 0.0456202 15.5817 0.10299 15.897C0.17334 16.2831 0.28821 16.6317 0.45965 16.9646C0.63422 17.3031 0.86163 17.6126 1.13297 17.8808C1.40465 18.1494 1.7175 18.3741 2.05903 18.5458C2.39477 18.7149 2.74635 18.8282 3.13483 18.8971C3.42443 18.9486 3.71952 18.9747 4.08778 18.9874L4.36376 18.9942C4.50726 18.9962 4.71936 18.9973 5.1428 18.9986L11.1475 18.9976C11.3067 18.9966 11.499 18.9946 11.7928 18.991C12.2215 18.9796 12.5467 18.9537 12.8654 18.8971C13.2538 18.8282 13.6053 18.7149 13.9415 18.5456C14.2827 18.3739 14.5957 18.1491 14.8671 17.8808C15.1387 17.6124 15.3661 17.3028 15.5402 16.9645C15.7119 16.6317 15.8268 16.2829 15.8969 15.8968C15.9491 15.61 15.9756 15.3176 15.9885 14.9529L15.992 14.8412C15.9943 14.7559 15.996 14.6683 15.9972 14.5748L16 13.8388L15.9996 7.75207L15.9972 7.42267C15.996 7.32914 15.9943 7.2415 15.9919 7.15597C15.9806 6.73846 15.9543 6.41624 15.8969 6.10026C15.8269 5.71445 15.7119 5.36581 15.54 5.03258C15.3661 4.69439 15.1386 4.38469 14.8669 4.11643C14.5962 3.84848 14.2832 3.62379 13.9412 3.45179C13.6053 3.28259 13.2538 3.16923 12.8653 3.10033C12.5757 3.04889 12.2806 3.02278 11.9123 3.01005L11.5954 3.0028C11.5702 3.00249 11.5429 3.00221 11.5129 3.00195L4.83098 3Z" fill="#1A1A1A" fill-opacity="0.01"/>
<path fill-rule="evenodd" clip-rule="evenodd" d="M4.21301 3.47536L4.85714 3.46875L11.5591 3.47134C11.6607 3.47237 11.7239 3.47364 11.7871 3.47536C12.1194 3.48418 12.4545 3.50364 12.7831 3.56202C13.1167 3.62117 13.4269 3.71795 13.7298 3.87052C14.0274 4.02021 14.3001 4.21584 14.5363 4.44963C14.7725 4.68285 14.9704 4.95217 15.1218 5.24665C15.2764 5.54632 15.374 5.853 15.4339 6.18277C15.4929 6.5076 15.5126 6.83892 15.5215 7.16739C15.5257 7.31812 15.5276 7.46888 15.5283 7.61987L15.5293 7.88832L15.5294 13.8371C15.5294 14.0162 15.5294 14.1952 15.5283 14.3745C15.5276 14.5252 15.5257 14.676 15.5215 14.8267C15.5126 15.1549 15.4929 15.4865 15.4339 15.8111C15.374 16.1408 15.2764 16.4478 15.1218 16.7475C14.9704 17.0417 14.7725 17.311 14.5363 17.5445C14.3001 17.778 14.0274 17.9739 13.7298 18.1236C13.4269 18.2762 13.1167 18.3729 12.7831 18.4321C12.4545 18.4905 12.1194 18.5099 11.7871 18.5187L10.7861 18.5265L4.44083 18.5228C4.3392 18.5217 4.27612 18.5205 4.21301 18.5187C3.88075 18.5099 3.54559 18.4905 3.217 18.4321C2.88345 18.3729 2.57323 18.2762 2.27036 18.1236C1.97248 17.9739 1.70005 17.778 1.46384 17.5445C1.22764 17.311 1.02974 17.0417 0.878039 16.7475C0.723729 16.4478 0.626089 16.1408 0.565989 15.8111C0.506929 15.4865 0.487519 15.1549 0.478599 14.8267C0.474389 14.676 0.472559 14.5252 0.471779 14.3745L0.470629 14.1057L0.470459 8.15695C0.470459 7.97792 0.470459 7.79864 0.471779 7.61987C0.472559 7.46888 0.474389 7.31812 0.478599 7.16739C0.487519 6.83892 0.506929 6.5076 0.565989 6.18277C0.626089 5.853 0.723729 5.54632 0.878039 5.24665C1.02974 4.95217 1.22764 4.68285 1.46384 4.44963C1.70005 4.21584 1.97248 4.02021 2.27036 3.87052C2.57323 3.71795 2.88345 3.62117 3.217 3.56202C3.54559 3.50364 3.88075 3.48418 4.21301 3.47536Z" fill="#1A1A1A" fill-opacity="0.01"/>
<path fill-rule="evenodd" clip-rule="evenodd" d="M4.21301 3.47536L4.85714 3.46875L11.5591 3.47134C11.6607 3.47237 11.7239 3.47364 11.7871 3.47536C12.1194 3.48418 12.4545 3.50364 12.7831 3.56202C13.1167 3.62117 13.4269 3.71795 13.7298 3.87052C14.0274 4.02021 14.3001 4.21584 14.5363 4.44963C14.7725 4.68285 14.9704 4.95217 15.1218 5.24665C15.2764 5.54632 15.374 5.853 15.4339 6.18277C15.4929 6.5076 15.5126 6.83892 15.5215 7.16739C15.5257 7.31812 15.5276 7.46888 15.5283 7.61987L15.5293 7.88832L15.5294 13.8371C15.5294 14.0162 15.5294 14.1952 15.5283 14.3745C15.5276 14.5252 15.5257 14.676 15.5215 14.8267C15.5126 15.1549 15.4929 15.4865 15.4339 15.8111C15.374 16.1408 15.2764 16.4478 15.1218 16.7475C14.9704 17.0417 14.7725 17.311 14.5363 17.5445C14.3001 17.778 14.0274 17.9739 13.7298 18.1236C13.4269 18.2762 13.1167 18.3729 12.7831 18.4321C12.4545 18.4905 12.1194 18.5099 11.7871 18.5187L10.7861 18.5265L4.44083 18.5228C4.3392 18.5217 4.27612 18.5205 4.21301 18.5187C3.88075 18.5099 3.54559 18.4905 3.217 18.4321C2.88345 18.3729 2.57323 18.2762 2.27036 18.1236C1.97248 17.9739 1.70005 17.778 1.46384 17.5445C1.22764 17.311 1.02974 17.0417 0.878039 16.7475C0.723729 16.4478 0.626089 16.1408 0.565989 15.8111C0.506929 15.4865 0.487519 15.1549 0.478599 14.8267C0.474389 14.676 0.472559 14.5252 0.471779 14.3745L0.470629 14.1057L0.470459 8.15695C0.470459 7.97792 0.470459 7.79864 0.471779 7.61987C0.472559 7.46888 0.474389 7.31812 0.478599 7.16739C0.487519 6.83892 0.506929 6.5076 0.565989 6.18277C0.626089 5.853 0.723729 5.54632 0.878039 5.24665C1.02974 4.95217 1.22764 4.68285 1.46384 4.44963C1.70005 4.21584 1.97248 4.02021 2.27036 3.87052C2.57323 3.71795 2.88345 3.62117 3.217 3.56202C3.54559 3.50364 3.88075 3.48418 4.21301 3.47536Z" fill="white"/>
<path d="M15.5294 3.46875H0.470459V18.5277H15.5294V3.46875Z" fill="#19AA1E"/>
<path fill-rule="evenodd" clip-rule="evenodd" d="M0.470459 3.46875H15.5294V8.40997L0.470459 6.05701V3.46875Z" fill="#FFB919"/>
<path fill-rule="evenodd" clip-rule="evenodd" d="M0.470459 16.8841L15.5294 14.5312V18.5312H0.470459V16.8841Z" fill="#82D714"/>
<path fill-rule="evenodd" clip-rule="evenodd" d="M0.470459 5.75781L5.72691 6.57911C6.3812 6.16492 7.1597 5.93783 7.9999 5.93783C9.1637 5.93783 10.209 6.37348 10.9701 7.13848C11.0661 7.23502 11.1567 7.33596 11.2416 7.44079L15.5294 8.11074V8.70611L11.677 8.1042C11.9632 8.65343 12.1176 9.26537 12.1176 9.88987C12.1176 10.6967 11.9371 11.5011 11.5641 12.3087L11.5528 12.3332L11.3943 12.6727H11.0197C10.2461 12.6727 9.733 12.9041 9.3975 13.3142C9.134 13.6362 8.9817 14.0703 8.9305 14.5439L8.9289 14.5587L8.9214 14.6344L8.9182 14.6673L8.9121 14.7317C8.8925 14.9431 8.8794 15.1224 8.8727 15.2686L15.5294 14.2285V14.8238L0.470459 17.1768V16.5814L7.1346 15.5401L7.1317 15.4065L7.1308 15.3688L7.1303 15.3495L7.1292 15.3196C7.1232 15.1576 7.1084 14.9498 7.0846 14.698L7.08 14.6503L7.0719 14.5676C7.024 14.0915 6.874 13.6519 6.6113 13.3251C6.2793 12.9122 5.77086 12.6774 5.00349 12.6727H4.98017H4.60553L4.44711 12.3332C4.06638 11.5173 3.88226 10.7048 3.88226 9.88987C3.88226 8.86503 4.29803 7.87404 5.02982 7.13848C5.05095 7.11725 5.07229 7.09627 5.09384 7.07556L0.470459 6.35315V5.75781Z" fill="white"/>
<path fill-rule="evenodd" clip-rule="evenodd" d="M7.99987 6.53125C10.1023 6.53125 11.5294 8.14945 11.5294 9.89504C11.5294 10.5958 11.3765 11.325 11.0197 12.0895C8.95097 12.0895 8.44027 13.5711 8.34377 14.5032L8.33757 14.5653C8.30487 14.898 8.28597 15.165 8.28077 15.3662L7.72047 15.4537L7.72027 15.4356C7.71817 15.2247 7.69827 14.9288 7.66047 14.5479L7.65887 14.5313C7.56967 13.6011 7.06977 12.0895 4.98014 12.0895C4.62336 11.325 4.47046 10.5958 4.47046 9.89504C4.47046 8.14945 5.89753 6.53125 7.99987 6.53125Z" fill="#0073FA"/>
<path d="M1 32.1124V25.3016H3.45795C4.01456 25.3016 4.49301 25.3957 4.89332 25.5838C5.29363 25.7654 5.60003 26.0314 5.81271 26.3816C6.0316 26.7254 6.1411 27.1438 6.1411 27.6368C6.1411 28.1167 6.0316 28.5319 5.81271 28.8822C5.60003 29.2259 5.29363 29.4919 4.89332 29.68C4.49301 29.8681 4.01456 29.9622 3.45795 29.9622H1.38464L1.69423 29.6216V32.1124H1ZM1.69423 29.68L1.38464 29.3297H3.43919C4.0959 29.3297 4.59312 29.1838 4.93085 28.8919C5.27487 28.5935 5.44683 28.1751 5.44683 27.6368C5.44683 27.0919 5.27487 26.6703 4.93085 26.3719C4.59312 26.0735 4.0959 25.9243 3.43919 25.9243H1.38464L1.69423 25.5838V29.68ZM9.4836 32.1611C8.9707 32.1611 8.5204 32.0508 8.1327 31.8303C7.7449 31.6033 7.4415 31.2951 7.2227 30.9059C7.0038 30.5102 6.8943 30.0595 6.8943 29.5535C6.8943 29.0476 6.9975 28.6 7.2039 28.2108C7.4166 27.8216 7.7042 27.5168 8.067 27.2962C8.436 27.0692 8.8488 26.9557 9.3054 26.9557C9.7681 26.9557 10.1778 27.0659 10.5343 27.2865C10.8971 27.5005 11.1816 27.8054 11.388 28.2011C11.5944 28.5903 11.6976 29.041 11.6976 29.5535C11.6976 29.5859 11.6945 29.6216 11.6882 29.6605C11.6882 29.6929 11.6882 29.7286 11.6882 29.7676H7.4009V29.2519H11.3318L11.0691 29.4562C11.0691 29.0865 10.9909 28.7589 10.8345 28.4735C10.6844 28.1816 10.478 27.9546 10.2154 27.7924C9.9527 27.6302 9.6494 27.5492 9.3054 27.5492C8.9676 27.5492 8.6643 27.6302 8.3953 27.7924C8.1264 27.9546 7.9169 28.1816 7.7668 28.4735C7.6167 28.7654 7.5416 29.0994 7.5416 29.4757V29.5827C7.5416 29.9719 7.623 30.3156 7.7855 30.6141C7.9544 30.9059 8.1859 31.1362 8.4798 31.3049C8.78 31.4671 9.1208 31.5481 9.5024 31.5481C9.8026 31.5481 10.0809 31.4929 10.3373 31.3827C10.6 31.2725 10.8252 31.1038 11.0128 30.8768L11.388 31.3243C11.1692 31.5968 10.8939 31.8043 10.5625 31.947C10.2372 32.0898 9.8776 32.1611 9.4836 32.1611ZM13.172 32.1124V27.0043H13.8381V31.0616L17.131 27.0043H17.7221V32.1124H17.056V28.0454L13.7724 32.1124H13.172ZM15.4048 26.2649C14.992 26.2649 14.6575 26.1578 14.401 25.9438C14.1509 25.7232 14.0196 25.4086 14.007 25H14.4854C14.4917 25.2595 14.5793 25.4638 14.7481 25.613C14.917 25.7621 15.136 25.8368 15.4048 25.8368C15.6738 25.8368 15.8927 25.7621 16.0615 25.613C16.2367 25.4638 16.3274 25.2595 16.3336 25H16.8121C16.8059 25.4086 16.6745 25.7232 16.418 25.9438C16.1616 26.1578 15.8239 26.2649 15.4048 26.2649ZM20.5692 32.1124V27.4227L20.738 27.6076H18.7022V27.0043H23.1022V27.6076H21.0664L21.2352 27.4227V32.1124H20.5692ZM24.0653 32.1124V27.0043H24.7314V31.0616L28.0243 27.0043H28.6153V32.1124H27.9492V28.0454L24.6657 32.1124H24.0653ZM30.5241 32.1124V27.0043H31.1902V29.2616H34.2955V27.0043H34.9616V32.1124H34.2955V29.8551H31.1902V32.1124H30.5241ZM36.8549 32.1124V27.0043H40.3448V27.6076H37.3521L37.521 27.4324V32.1124H36.8549ZM45.7892 32.1611C45.3138 32.1611 44.8854 32.0508 44.5039 31.8303C44.1286 31.6033 43.8315 31.2951 43.6127 30.9059C43.3937 30.5102 43.2843 30.0595 43.2843 29.5535C43.2843 29.041 43.3937 28.5903 43.6127 28.2011C43.8315 27.8119 44.1286 27.5071 44.5039 27.2865C44.8792 27.0659 45.3075 26.9557 45.7892 26.9557C46.277 26.9557 46.7086 27.0659 47.0838 27.2865C47.4653 27.5071 47.7624 27.8119 47.9751 28.2011C48.1939 28.5903 48.3034 29.041 48.3034 29.5535C48.3034 30.0595 48.1939 30.5102 47.9751 30.9059C47.7624 31.2951 47.4653 31.6033 47.0838 31.8303C46.7023 32.0508 46.2707 32.1611 45.7892 32.1611ZM45.7892 31.5481C46.1457 31.5481 46.4614 31.4671 46.7367 31.3049C47.0119 31.1362 47.2276 30.9027 47.384 30.6043C47.5466 30.2995 47.6279 29.9492 47.6279 29.5535C47.6279 29.1514 47.5466 28.8011 47.384 28.5027C47.2276 28.2043 47.0119 27.9741 46.7367 27.8119C46.4614 27.6433 46.1488 27.5589 45.7985 27.5589C45.4482 27.5589 45.1356 27.6433 44.8604 27.8119C44.5851 27.9741 44.3663 28.2043 44.2037 28.5027C44.041 28.8011 43.9598 29.1514 43.9598 29.5535C43.9598 29.9492 44.041 30.2995 44.2037 30.6043C44.3663 30.9027 44.5851 31.1362 44.8604 31.3049C45.1356 31.4671 45.4451 31.5481 45.7892 31.5481ZM52.2693 32.1611C51.844 32.1611 51.4594 32.0606 51.1154 31.8595C50.7714 31.6519 50.4962 31.3567 50.2898 30.9741C50.0896 30.5849 49.9896 30.1113 49.9896 29.5535C49.9896 28.9957 50.0896 28.5254 50.2898 28.1427C50.49 27.7535 50.762 27.4584 51.106 27.2573C51.45 27.0562 51.8378 26.9557 52.2693 26.9557C52.7384 26.9557 53.1574 27.0659 53.5265 27.2865C53.9017 27.5005 54.1956 27.8054 54.4083 28.2011C54.6209 28.5903 54.7273 29.041 54.7273 29.5535C54.7273 30.0724 54.6209 30.5265 54.4083 30.9157C54.1956 31.3049 53.9017 31.6097 53.5265 31.8303C53.1574 32.0508 52.7384 32.1611 52.2693 32.1611ZM49.727 34V27.0043H50.3649V28.5416L50.2992 29.5632L50.393 30.5946V34H49.727ZM52.2224 31.5481C52.5727 31.5481 52.8853 31.4671 53.1606 31.3049C53.4357 31.1362 53.6546 30.9027 53.8173 30.6043C53.9799 30.2995 54.0612 29.9492 54.0612 29.5535C54.0612 29.1578 53.9799 28.8108 53.8173 28.5124C53.6546 28.214 53.4357 27.9805 53.1606 27.8119C52.8853 27.6433 52.5727 27.5589 52.2224 27.5589C51.8721 27.5589 51.5564 27.6433 51.2749 27.8119C50.9997 27.9805 50.7808 28.214 50.6182 28.5124C50.4618 28.8108 50.3837 29.1578 50.3837 29.5535C50.3837 29.9492 50.4618 30.2995 50.6182 30.6043C50.7808 30.9027 50.9997 31.1362 51.2749 31.3049C51.5564 31.4671 51.8721 31.5481 52.2224 31.5481ZM56.1584 32.1124V27.0043H59.6483V27.6076H56.6556L56.8244 27.4324V32.1124H56.1584ZM63.6693 32.1124V30.9838L63.6411 30.7989V28.9114C63.6411 28.4767 63.5224 28.1427 63.2846 27.9092C63.0533 27.6757 62.7062 27.5589 62.2433 27.5589C61.9243 27.5589 61.621 27.6141 61.3333 27.7243C61.0456 27.8346 60.8017 27.9805 60.6015 28.1622L60.3013 27.6465C60.5515 27.4259 60.8517 27.2573 61.2019 27.1405C61.5522 27.0173 61.9212 26.9557 62.309 26.9557C62.9469 26.9557 63.4379 27.1211 63.7819 27.4519C64.1322 27.7762 64.3072 28.2724 64.3072 28.9405V32.1124H63.6693ZM61.9712 32.1611C61.6022 32.1611 61.2802 32.0995 61.0049 31.9762C60.7361 31.8465 60.5297 31.6714 60.3858 31.4508C60.2419 31.2238 60.17 30.9643 60.17 30.6724C60.17 30.4065 60.2295 30.1665 60.3482 29.9524C60.4734 29.7319 60.6735 29.5567 60.9486 29.427C61.2301 29.2908 61.6053 29.2227 62.0744 29.2227H63.7725V29.7384H62.0932C61.6179 29.7384 61.2864 29.8259 61.0987 30.0011C60.9174 30.1762 60.8267 30.3935 60.8267 30.653C60.8267 30.9449 60.9362 31.1784 61.155 31.3535C61.374 31.5286 61.6804 31.6162 62.0744 31.6162C62.4497 31.6162 62.7718 31.5286 63.0407 31.3535C63.316 31.1719 63.5161 30.9125 63.6411 30.5751L63.7912 31.0519C63.6662 31.3892 63.4473 31.6583 63.1345 31.8595C62.8281 32.0606 62.4403 32.1611 61.9712 32.1611ZM66.0804 32.1124V27.0043H66.7465V29.2616H69.8518V27.0043H70.5179V32.1124H69.8518V29.8551H66.7465V32.1124H66.0804ZM72.4111 32.1124V27.0043H73.0771V31.0616L76.37 27.0043H76.9611V32.1124H76.295V28.0454L73.0115 32.1124H72.4111ZM80.0917 32.1708C79.7352 32.1708 79.3825 32.119 79.0316 32.0151C78.6817 31.9113 78.3721 31.7524 78.1028 31.5384L78.3186 31.0227C78.5569 31.2044 78.8317 31.3438 79.1442 31.4411C79.4575 31.5319 79.7671 31.5773 80.0729 31.5773C80.3797 31.5708 80.6452 31.5254 80.8704 31.4411C81.0955 31.3567 81.2709 31.24 81.3957 31.0908C81.5214 30.9417 81.5833 30.7729 81.5833 30.5849C81.5833 30.3124 81.4651 30.1016 81.2268 29.9524C80.9895 29.7968 80.664 29.7189 80.2512 29.7189H79.4068V29.213H80.2043C80.4482 29.213 80.664 29.1806 80.8516 29.1157C81.0392 29.0508 81.1837 28.9568 81.2831 28.8335C81.3901 28.7102 81.4426 28.5643 81.4426 28.3957C81.4426 28.214 81.3807 28.0583 81.255 27.9286C81.1368 27.799 80.9707 27.7017 80.7578 27.6368C80.5458 27.5719 80.3046 27.5395 80.0354 27.5395C79.7915 27.546 79.5382 27.5849 79.2755 27.6562C79.0128 27.7211 78.7539 27.8216 78.4968 27.9578L78.3092 27.4227C78.5972 27.267 78.8815 27.1503 79.1629 27.0724C79.4509 26.9881 79.7389 26.9459 80.026 26.9459C80.42 26.933 80.7737 26.9817 81.0861 27.0919C81.4051 27.2021 81.6584 27.3611 81.846 27.5686C82.0337 27.7698 82.1275 28.013 82.1275 28.2984C82.1275 28.5514 82.0524 28.7719 81.9023 28.96C81.7522 29.1481 81.5524 29.294 81.3019 29.3978C81.0524 29.5017 80.7672 29.5535 80.4482 29.5535L80.4763 29.3686C81.0392 29.3686 81.4773 29.4822 81.7897 29.7092C82.1087 29.9362 82.2682 30.2443 82.2682 30.6335C82.2682 30.9383 82.1716 31.2076 81.9774 31.4411C81.7841 31.6681 81.5214 31.8465 81.1893 31.9762C80.8647 32.1059 80.4988 32.1708 80.0917 32.1708ZM86.8389 32.1124V30.9838L86.8107 30.7989V28.9114C86.8107 28.4767 86.6925 28.1427 86.4542 27.9092C86.2234 27.6757 85.8763 27.5589 85.4129 27.5589C85.0939 27.5589 84.7909 27.6141 84.5029 27.7243C84.2158 27.8346 83.9719 27.9805 83.7711 28.1622L83.4709 27.6465C83.7214 27.4259 84.0216 27.2573 84.3715 27.1405C84.7224 27.0173 85.0911 26.9557 85.4785 26.9557C86.1165 26.9557 86.6081 27.1211 86.9514 27.4519C87.3023 27.7762 87.4768 28.2724 87.4768 28.9405V32.1124H86.8389ZM85.1408 32.1611C84.7721 32.1611 84.4503 32.0995 84.1745 31.9762C83.9062 31.8465 83.6998 31.6714 83.5553 31.4508C83.4118 31.2238 83.3396 30.9643 83.3396 30.6724C83.3396 30.4065 83.3996 30.1665 83.5178 29.9524C83.6435 29.7319 83.8433 29.5567 84.1182 29.427C84.3997 29.2908 84.7749 29.2227 85.244 29.2227H86.9421V29.7384H85.2628C84.7881 29.7384 84.456 29.8259 84.2683 30.0011C84.0873 30.1762 83.9963 30.3935 83.9963 30.653C83.9963 30.9449 84.106 31.1784 84.3246 31.3535C84.5442 31.5286 84.85 31.6162 85.244 31.6162C85.6193 31.6162 85.942 31.5286 86.2103 31.3535C86.4861 31.1719 86.686 30.9125 86.8107 30.5751L86.9608 31.0519C86.8361 31.3892 86.6175 31.6583 86.3041 31.8595C85.9983 32.0606 85.6099 32.1611 85.1408 32.1611ZM89.2499 32.1124V27.0043H89.916V31.5092H92.9275V27.0043H93.5935V32.1124H89.2499ZM93.7624 33.3481V32.0541L93.9313 32.1124H92.9275V31.5092H94.391V33.3481H93.7624ZM95.6631 32.1124V27.0043H96.329V31.0616L99.622 27.0043H100.213V32.1124H99.547V28.0454L96.264 32.1124H95.6631ZM102.122 32.1124V27.0043H102.788V31.0616L106.081 27.0043H106.672V32.1124H106.006V28.0454L102.723 32.1124H102.122ZM111.037 32.1124V27.0043H113.213C113.769 27.0043 114.208 27.1146 114.526 27.3351C114.852 27.5557 115.014 27.88 115.014 28.3081C115.014 28.7233 114.861 29.0444 114.555 29.2714C114.248 29.4919 113.844 29.6022 113.344 29.6022L113.476 29.3978C114.064 29.3978 114.496 29.5114 114.77 29.7384C115.045 29.9654 115.183 30.293 115.183 30.7211C115.183 31.1621 115.027 31.506 114.714 31.7524C114.407 31.9925 113.929 32.1124 113.279 32.1124H111.037ZM111.684 31.5676H113.251C113.67 31.5676 113.985 31.4995 114.198 31.3632C114.417 31.2205 114.526 30.9935 114.526 30.6822C114.526 30.3708 114.43 30.1438 114.236 30.0011C114.041 29.8583 113.736 29.787 113.316 29.787H111.684V31.5676ZM111.684 29.2714H113.166C113.548 29.2714 113.839 29.1967 114.039 29.0476C114.245 28.8984 114.348 28.681 114.348 28.3957C114.348 28.1103 114.245 27.8962 114.039 27.7535C113.839 27.6108 113.548 27.5395 113.166 27.5395H111.684V29.2714ZM118.618 32.1124V31.6162L121.348 28.8432C121.598 28.5903 121.786 28.3697 121.911 28.1816C122.035 27.987 122.12 27.8054 122.164 27.6368C122.208 27.4681 122.23 27.3092 122.23 27.16C122.23 26.7643 122.098 26.4529 121.836 26.2259C121.58 25.999 121.198 25.8854 120.691 25.8854C120.304 25.8854 119.959 25.947 119.659 26.0703C119.365 26.1935 119.112 26.3848 118.899 26.6443L118.421 26.2162C118.677 25.9049 119.005 25.6648 119.406 25.4962C119.806 25.3276 120.253 25.2432 120.747 25.2432C121.191 25.2432 121.576 25.3179 121.901 25.467C122.227 25.6098 122.476 25.8205 122.652 26.0995C122.833 26.3784 122.924 26.7059 122.924 27.0822C122.924 27.3027 122.893 27.52 122.83 27.7341C122.774 27.9481 122.668 28.1751 122.511 28.4151C122.361 28.6486 122.139 28.9146 121.845 29.213L119.34 31.7622L119.153 31.4897H123.224V32.1124H118.618ZM127.534 32.1708C127.033 32.1708 126.57 32.0865 126.145 31.9178C125.726 31.7427 125.36 31.4995 125.048 31.1881C124.741 30.8768 124.5 30.5102 124.325 30.0886C124.157 29.6671 124.072 29.2065 124.072 28.707C124.072 28.2076 124.157 27.747 124.325 27.3254C124.5 26.9038 124.744 26.5373 125.057 26.2259C125.37 25.9146 125.736 25.6746 126.155 25.5059C126.58 25.3308 127.042 25.2432 127.543 25.2432C128.043 25.2432 128.5 25.3243 128.913 25.4865C129.331 25.6487 129.688 25.8951 129.983 26.2259L129.551 26.6832C129.275 26.3979 128.972 26.1935 128.641 26.0703C128.309 25.947 127.952 25.8854 127.571 25.8854C127.164 25.8854 126.789 25.9567 126.446 26.0995C126.108 26.2357 125.811 26.4335 125.554 26.693C125.304 26.9459 125.107 27.2444 124.963 27.5881C124.825 27.9254 124.757 28.2984 124.757 28.707C124.757 29.1092 124.825 29.4822 124.963 29.8259C125.107 30.1697 125.304 30.4713 125.554 30.7308C125.811 30.9838 126.108 31.1816 126.446 31.3243C126.789 31.4605 127.162 31.5286 127.562 31.5286C127.937 31.5286 128.29 31.4703 128.622 31.3535C128.96 31.2368 129.27 31.039 129.551 30.76L129.945 31.3049C129.632 31.5902 129.266 31.8076 128.847 31.9568C128.428 32.0995 127.99 32.1708 127.534 32.1708ZM129.279 31.2173V28.707H129.945V31.3049L129.279 31.2173ZM131.909 32.1124V25.3016H132.604V32.1124H131.909ZM136.551 32.1708C136.064 32.1708 135.595 32.0898 135.144 31.9276C134.7 31.759 134.356 31.5449 134.112 31.2854L134.384 30.7308C134.615 30.9643 134.925 31.1621 135.313 31.3243C135.707 31.48 136.12 31.5578 136.551 31.5578C136.964 31.5578 137.298 31.506 137.555 31.4022C137.818 31.2919 138.008 31.146 138.128 30.9643C138.252 30.7827 138.315 30.5817 138.315 30.3611C138.315 30.0952 138.24 29.8811 138.09 29.7189C137.946 29.5567 137.755 29.4302 137.518 29.3395C137.279 29.2422 137.017 29.1578 136.73 29.0865C136.442 29.0152 136.154 28.9405 135.867 28.8627C135.579 28.7783 135.313 28.6681 135.069 28.5319C134.831 28.3957 134.638 28.2173 134.488 27.9968C134.343 27.7698 134.272 27.4746 134.272 27.1114C134.272 26.774 134.356 26.466 134.525 26.187C134.7 25.9017 134.966 25.6746 135.322 25.5059C135.679 25.3308 136.135 25.2432 136.692 25.2432C137.061 25.2432 137.427 25.2984 137.79 25.4086C138.152 25.5125 138.465 25.6584 138.728 25.8465L138.493 26.4205C138.212 26.2259 137.912 26.0832 137.593 25.9924C137.279 25.9017 136.976 25.8562 136.683 25.8562C136.289 25.8562 135.963 25.9114 135.707 26.0216C135.45 26.1319 135.26 26.2811 135.135 26.4692C135.016 26.6508 134.957 26.8584 134.957 27.0919C134.957 27.3578 135.028 27.5719 135.172 27.7341C135.322 27.8962 135.516 28.0227 135.754 28.1135C135.998 28.2043 136.263 28.2854 136.551 28.3568C136.839 28.4281 137.124 28.5059 137.405 28.5903C137.692 28.6746 137.955 28.7849 138.193 28.9211C138.437 29.0508 138.63 29.2259 138.775 29.4465C138.925 29.6671 139 29.9556 139 30.3124C139 30.6432 138.912 30.9514 138.737 31.2368C138.562 31.5157 138.293 31.7427 137.931 31.9178C137.574 32.0865 137.114 32.1708 136.551 32.1708Z" fill="black"/>
</svg>
