<svg width="48" height="48" viewBox="0 0 48 48" fill="none" xmlns="http://www.w3.org/2000/svg">
<rect x="0.5" y="0.5" width="47" height="47" rx="23.5" fill="white"/>
<rect x="0.5" y="0.5" width="47" height="47" rx="23.5" stroke="#D6DDE6"/>
<path d="M20.0947 33.9875C19.5982 33.9875 19.175 33.8107 18.825 33.4572C18.475 33.1037 18.3 32.6787 18.3 32.1822C18.3 31.6857 18.4767 31.2625 18.8303 30.9125C19.1838 30.5625 19.6088 30.3875 20.1053 30.3875C20.6017 30.3875 21.025 30.5643 21.375 30.9178C21.725 31.2714 21.9 31.6964 21.9 32.1928C21.9 32.6893 21.7232 33.1125 21.3697 33.4625C21.0161 33.8125 20.5911 33.9875 20.0947 33.9875ZM30.0947 33.9875C29.5982 33.9875 29.175 33.8107 28.825 33.4572C28.475 33.1037 28.3 32.6787 28.3 32.1822C28.3 31.6857 28.4767 31.2625 28.8303 30.9125C29.1838 30.5625 29.6088 30.3875 30.1053 30.3875C30.6017 30.3875 31.025 30.5643 31.375 30.9178C31.725 31.2714 31.9 31.6964 31.9 32.1928C31.9 32.6893 31.7232 33.1125 31.3697 33.4625C31.0161 33.8125 30.5911 33.9875 30.0947 33.9875ZM18.8 17.4875L21.55 23.1875H28.75L31.875 17.4875H18.8ZM18.05 15.9875H32.7768C33.1595 15.9875 33.4507 16.1625 33.6504 16.5125C33.8501 16.8625 33.85 17.2125 33.65 17.5625L30.275 23.6375C30.0916 23.9542 29.8536 24.2083 29.561 24.4C29.2683 24.5917 28.948 24.6875 28.6 24.6875H21.025L19.625 27.2875H31.9V28.7875H19.85C19.15 28.7875 18.6458 28.5542 18.3375 28.0875C18.0291 27.6208 18.0333 27.0958 18.35 26.5125L19.95 23.5625L16.15 15.5125H14.2V14.0125H17.125L18.05 15.9875Z" fill="#2E3192"/>
</svg>
