<svg width="48" height="48" viewBox="0 0 48 48" fill="none" xmlns="http://www.w3.org/2000/svg">
<rect x="0.5" y="0.5" width="47" height="47" rx="23.5" fill="white"/>
<rect x="0.5" y="0.5" width="47" height="47" rx="23.5" stroke="#D6DDE6"/>
<path d="M33.4442 32.4H15.5994V31.833L20.8479 26.583L24.8367 30.573C25.0334 30.7686 25.2994 30.8783 25.5767 30.8783C25.8541 30.8783 26.1201 30.7686 26.3168 30.573L34.1895 22.698C34.2879 22.6004 34.366 22.4843 34.4193 22.3563C34.4726 22.2284 34.5 22.0911 34.5 21.9525C34.5 21.8139 34.4726 21.6766 34.4193 21.5487C34.366 21.4207 34.2879 21.3046 34.1895 21.207C33.9928 21.0114 33.7268 20.9017 33.4495 20.9017C33.1722 20.9017 32.9061 21.0114 32.7094 21.207L25.5715 28.347L21.5932 24.357C21.3965 24.1614 21.1304 24.0517 20.8531 24.0517C20.5758 24.0517 20.3098 24.1614 20.1131 24.357L15.5994 28.8615V23.433L20.8479 18.183L23.787 21.123C23.9837 21.3186 24.2497 21.4283 24.5271 21.4283C24.8044 21.4283 25.0704 21.3186 25.2671 21.123L30.2951 16.0935L32.594 18.393C32.7916 18.5893 33.0592 18.6991 33.3377 18.6981C33.6163 18.6971 33.883 18.5855 34.0793 18.3877C34.2756 18.19 34.3853 17.9224 34.3843 17.6438C34.3833 17.3652 34.2717 17.0983 34.074 16.902L31.0194 13.8675C30.8227 13.6719 30.5567 13.5622 30.2794 13.5622C30.0021 13.5622 29.736 13.6719 29.5394 13.8675L24.5008 18.9075L21.5722 15.9675C21.3755 15.7719 21.1094 15.6622 20.8321 15.6622C20.5548 15.6622 20.2888 15.7719 20.0921 15.9675L15.5994 20.4615V14.55C15.5994 14.2715 15.4888 14.0045 15.2919 13.8075C15.0951 13.6106 14.8281 13.5 14.5497 13.5C14.2713 13.5 14.0043 13.6106 13.8074 13.8075C13.6106 14.0045 13.5 14.2715 13.5 14.55V33.45C13.5 33.7285 13.6106 33.9955 13.8074 34.1925C14.0043 34.3894 14.2713 34.5 14.5497 34.5H33.4442C33.7226 34.5 33.9896 34.3894 34.1865 34.1925C34.3833 33.9955 34.4939 33.7285 34.4939 33.45C34.4939 33.1715 34.3833 32.9044 34.1865 32.7075C33.9896 32.5106 33.7226 32.4 33.4442 32.4Z" fill="#2E3192"/>
</svg>
