<svg viewBox="0 0 85 45" fill="none" xmlns="http://www.w3.org/2000/svg">
<path d="M75.4095 0H9.59049C4.29381 0 0 4.25164 0 9.49631V39.5037C0 44.7484 4.29381 49 9.59049 49H75.4095C80.7062 49 85 44.7484 85 39.5037V9.49631C85 4.25164 80.7062 0 75.4095 0Z" fill="#2E3192"/>
<path d="M39.8711 18.872V35.1652C40.1108 36.8017 40.9098 38.3074 42.1348 39.4313C42.7248 39.9601 43.4181 40.3635 44.1717 40.6164C44.9253 40.8693 45.7232 40.9662 46.5162 40.9015V24.1505C46.1567 23.2726 45.6553 22.4586 45.0314 21.7403C43.7508 20.1592 41.9012 19.131 39.8711 18.872Z" fill="white"/>
<path d="M30.7192 32.779C30.6551 33.9725 30.3406 35.1399 29.7958 36.2064C29.251 37.2729 28.4878 38.2152 27.5548 38.9735C25.907 40.3286 23.8031 41.0171 21.6642 40.9015C16.9664 40.9015 12.2928 40.9015 7.66797 40.9015C7.66797 36.3221 7.66797 31.7186 7.66797 27.1151V18.9926C9.23131 19.2579 10.7035 19.904 11.9521 20.8726C12.9563 21.6793 13.7844 22.6797 14.3862 23.813V34.9966H21.6886C22.3342 34.9966 22.9533 34.7427 23.4098 34.2907C23.8663 33.8387 24.1227 33.2256 24.1227 32.5863C24.1492 32.2456 24.1069 31.9031 23.9985 31.5786C23.8901 31.2541 23.7177 30.9542 23.4912 30.6963C23.2647 30.4384 22.9887 30.2274 22.6793 30.0761C22.3698 29.9247 22.0331 29.8358 21.6886 29.8145C20.5559 29.6327 19.4857 29.1776 18.5728 28.489C17.1612 27.4196 16.1919 25.877 15.8466 24.1505H21.6886C22.8697 24.065 24.0557 24.2269 25.1693 24.626C26.2828 25.0251 27.299 25.6523 28.1512 26.4666C29.0034 27.2809 29.6726 28.264 30.1151 29.3517C30.5576 30.4394 30.7634 31.6072 30.7192 32.779Z" fill="white"/>
<path d="M7.59375 10.0507H54.6213C54.9665 10.0507 55.3083 10.118 55.6273 10.2488C55.9462 10.3796 56.236 10.5714 56.4801 10.8131C56.7243 11.0548 56.9179 11.3417 57.05 11.6576C57.1821 11.9734 57.2501 12.3119 57.2501 12.6537V16.5583H10.247C9.89969 16.5615 9.55522 16.4965 9.23346 16.3671C8.91169 16.2377 8.61901 16.0465 8.37231 15.8044C8.12562 15.5624 7.9298 15.2744 7.79616 14.957C7.66253 14.6396 7.59374 14.2991 7.59375 13.9552V10.0507Z" fill="white"/>
<path d="M73.0237 39.9615C72.2468 40.5543 71.302 40.8914 70.3218 40.9257H45.9805V38.0576H74.4112C74.1277 38.8031 73.6488 39.4601 73.0237 39.9615Z" fill="white"/>
<path d="M77.6008 32.9238C77.3112 33.2913 76.9424 33.59 76.5213 33.7985C76.1002 34.007 75.6374 34.12 75.1667 34.1289H45.957V31.2606H78.2337C78.2026 31.8666 77.9813 32.4481 77.6008 32.9238Z" fill="white"/>
</svg>
