<svg width="481" height="557" viewBox="0 0 481 557" fill="none" xmlns="http://www.w3.org/2000/svg">
<g opacity="0.2">
<path d="M304.266 105.577L314.936 29.9447C315.467 26.5452 315.317 23.0743 314.495 19.7336C313.673 16.3929 312.195 13.2492 310.148 10.4849C308.1 7.7206 305.524 5.3908 302.568 3.6312C299.612 1.8716 296.335 0.717201 292.929 0.235001L290.844 0L280.034 75.65C279.503 79.0495 279.653 82.5203 280.475 85.861C281.297 89.2017 282.775 92.3456 284.822 95.1099C286.87 97.8742 289.447 100.204 292.403 101.963C295.359 103.723 298.635 104.878 302.041 105.36L304.266 105.577Z" fill="#C1C3ED"/>
<path d="M245.172 11.7512L234.424 87.3226C233.893 90.7221 234.043 94.1931 234.865 97.5338C235.687 100.874 237.164 104.018 239.212 106.783C241.259 109.547 243.836 111.877 246.792 113.636C249.748 115.396 253.024 116.55 256.431 117.032L258.533 117.407L269.264 41.6959C269.795 38.2965 269.646 34.8255 268.824 31.4848C268.002 28.1441 266.524 25.0004 264.476 22.2361C262.428 19.4717 259.852 17.1419 256.896 15.3823C253.94 13.6227 250.664 12.4684 247.257 11.9861L245.172 11.7512Z" fill="#C1C3ED"/>
<path d="M258.651 80.9536L187.671 109.702C181.24 112.414 176.14 117.558 173.482 124.012C170.825 130.466 170.824 137.708 173.481 144.162L174.301 146.186L245.027 117.115C251.446 114.412 256.534 109.279 259.182 102.837C261.829 96.3949 261.82 89.1677 259.157 82.7335L258.651 80.9536Z" fill="#C1C3ED"/>
<path d="M255.72 86.9925L325.846 141.508L316.503 153.526C314.349 156.296 311.183 158.098 307.702 158.535C304.22 158.971 300.708 158.007 297.938 155.853L227.812 101.338L237.155 89.32C239.309 86.5494 242.475 84.7475 245.956 84.3111C249.438 83.8746 252.95 84.8391 255.72 86.9925Z" fill="#C1C3ED"/>
<path d="M159.681 13.4653L88.8582 42.3353C85.6567 43.6573 82.7482 45.5994 80.3 48.05C77.8518 50.5006 75.9124 53.4112 74.5934 56.6142C73.2745 59.8171 72.6019 63.2491 72.6146 66.7127C72.6274 70.1763 73.325 73.6031 74.6674 76.7957L75.4093 78.7584L146.136 49.688C149.331 48.3706 152.233 46.4331 154.676 43.9878C157.118 41.5424 159.052 38.6375 160.366 35.4408C161.68 32.2441 162.347 28.8187 162.33 25.3629C162.313 21.907 161.611 18.4891 160.265 15.3063L159.681 13.4653Z" fill="#C1C3ED"/>
<path d="M116.004 297.83L45.4174 326.883C38.973 329.502 33.824 334.561 31.0923 340.959C28.3607 347.356 28.2678 354.574 30.8339 361.038L31.7154 362.984L102.381 333.992C108.799 331.288 113.887 326.155 116.535 319.713C119.182 313.271 119.173 306.044 116.51 299.61L116.004 297.83Z" fill="#C1C3ED"/>
<path d="M247.516 135.306L176.868 164.438C170.437 167.047 165.299 172.096 162.578 178.481C159.857 184.867 159.773 192.069 162.346 198.514L163.166 200.538L233.832 171.546C240.263 168.833 245.363 163.69 248.021 157.236C250.678 150.782 250.679 143.539 248.022 137.086L247.516 135.306Z" fill="#C1C3ED"/>
<path d="M124.203 127.654L194.328 182.169L184.802 194.423C182.648 197.193 179.483 198.996 176.001 199.432C172.519 199.868 169.007 198.904 166.237 196.75L96.2684 142.357L105.611 130.339C106.651 128.936 107.959 127.753 109.459 126.858C110.958 125.963 112.62 125.374 114.349 125.124C116.077 124.875 117.837 124.97 119.529 125.404C121.22 125.838 122.808 126.603 124.203 127.654Z" fill="#C1C3ED"/>
<path d="M175.424 271.312L186.094 195.679C186.638 192.278 186.499 188.802 185.682 185.456C184.866 182.11 183.39 178.961 181.34 176.194C179.29 173.426 176.708 171.096 173.745 169.341C170.782 167.585 167.499 166.439 164.087 165.969L162.002 165.734L151.253 241.306C150.722 244.705 150.872 248.176 151.694 251.517C152.516 254.858 153.994 258.001 156.041 260.766C158.089 263.53 160.666 265.86 163.622 267.619C166.577 269.379 169.854 270.533 173.26 271.016L175.424 271.312Z" fill="#C1C3ED"/>
<path d="M116.313 177.346L105.582 253.057C105.051 256.457 105.201 259.927 106.023 263.268C106.845 266.609 108.322 269.753 110.37 272.517C112.417 275.281 114.994 277.611 117.95 279.371C120.906 281.13 124.182 282.285 127.589 282.767L129.752 283.063L140.422 207.43C140.953 204.031 140.803 200.56 139.981 197.219C139.159 193.878 137.682 190.734 135.634 187.97C133.587 185.206 131.01 182.876 128.054 181.117C125.098 179.357 121.822 178.203 118.415 177.72L116.313 177.346Z" fill="#C1C3ED"/>
<path d="M129.809 246.688L58.8297 275.436C52.4115 278.139 47.323 283.273 44.6757 289.714C42.0283 296.156 42.037 303.383 44.7 309.818L45.5204 311.841L116.185 282.849C122.604 280.146 127.692 275.013 130.34 268.571C132.987 262.129 132.978 254.902 130.315 248.468L129.809 246.688Z" fill="#C1C3ED"/>
<path d="M126.878 252.727L197.004 307.242L187.661 319.26C185.507 322.031 182.341 323.833 178.86 324.269C175.378 324.705 171.866 323.741 169.096 321.587L98.9703 267.072L108.313 255.054C109.379 253.682 110.706 252.534 112.216 251.674C113.726 250.815 115.39 250.261 117.114 250.045C118.838 249.829 120.588 249.955 122.263 250.415C123.939 250.875 125.507 251.661 126.878 252.727Z" fill="#C1C3ED"/>
<path d="M148.546 67.8176L77.8194 96.8883C71.4012 99.5918 66.3128 104.725 63.6654 111.167C61.018 117.609 61.0268 124.836 63.6897 131.27L64.51 133.294L135.175 104.302C141.606 101.589 146.706 96.446 149.364 89.9918C152.022 83.5375 152.023 76.2951 149.366 69.8416L148.546 67.8176Z" fill="#C1C3ED"/>
<path d="M76.061 203.518L86.7308 127.885C87.2674 124.494 87.1237 121.031 86.3081 117.696C85.4925 114.362 84.0212 111.224 81.9802 108.464C79.9392 105.704 77.3693 103.379 74.4201 101.623C71.471 99.8668 68.2015 98.7157 64.8026 98.2364L62.6391 97.9404L51.9691 173.573C51.4242 176.974 51.564 180.45 52.3803 183.796C53.1967 187.142 54.6732 190.291 56.7231 193.058C58.773 195.826 61.355 198.156 64.3176 199.912C67.2803 201.667 70.5639 202.814 73.9758 203.283L76.061 203.518Z" fill="#C1C3ED"/>
<path d="M27.9081 185.238L98.0336 239.754L88.6911 251.772C86.5372 254.542 83.371 256.344 79.8893 256.781C76.4076 257.217 72.8954 256.252 70.1254 254.099L0 199.584L9.34261 187.566C11.4965 184.795 14.6624 182.993 18.1441 182.557C21.6258 182.12 25.1381 183.085 27.9081 185.238Z" fill="#C1C3ED"/>
<path d="M477.885 38.7957L407.237 67.9274C404.05 69.2556 401.157 71.1988 398.721 73.6461C396.286 76.0935 394.357 78.9969 393.045 82.1902C391.733 85.3835 391.063 88.804 391.073 92.2562C391.084 95.7084 391.775 99.1243 393.107 102.309L393.43 104.324L464.157 75.2537C470.575 72.5502 475.663 67.4172 478.31 60.9754C480.958 54.5335 480.949 47.3064 478.286 40.8722L477.885 38.7957Z" fill="#C1C3ED"/>
<path d="M354.571 31.1435L424.697 85.6591L415.354 97.6768C413.2 100.447 410.034 102.249 406.553 102.686C403.071 103.122 399.559 102.158 396.789 100.004L326.663 45.4887L336.006 33.471C338.16 30.7004 341.326 28.8986 344.808 28.4622C348.289 28.0257 351.801 28.9901 354.571 31.1435Z" fill="#C1C3ED"/>
<path d="M405.479 174.556L416.148 98.9242C416.693 95.5231 416.554 92.0474 415.737 88.7014C414.921 85.3554 413.444 82.2061 411.395 79.4387C409.345 76.6714 406.762 74.3416 403.8 72.5858C400.837 70.8301 397.554 69.6839 394.142 69.2144L392.057 68.9795L380.942 145.022C380.424 148.42 380.584 151.886 381.412 155.222C382.239 158.557 383.718 161.696 385.764 164.457C387.809 167.218 390.38 169.548 393.33 171.311C396.279 173.074 399.548 174.237 402.949 174.732L405.479 174.556Z" fill="#C1C3ED"/>
<path d="M346.882 80.7395L336.073 156.39C335.542 159.789 335.692 163.26 336.514 166.6C337.335 169.941 338.813 173.085 340.861 175.849C342.908 178.614 345.485 180.943 348.441 182.703C351.397 184.462 354.673 185.617 358.079 186.099L360.243 186.395L370.913 110.763C371.444 107.363 371.294 103.892 370.472 100.552C369.65 97.211 368.173 94.067 366.125 91.3027C364.077 88.5384 361.501 86.2088 358.545 84.4492C355.589 82.6896 352.313 81.535 348.906 81.0528L346.882 80.7395Z" fill="#C1C3ED"/>
<path d="M360.178 150.177L289.513 179.169C283.094 181.873 278.006 187.006 275.359 193.448C272.711 199.89 272.72 207.117 275.383 213.552L276.203 215.575L346.869 186.583C353.287 183.879 358.375 178.746 361.023 172.304C363.67 165.863 363.661 158.635 360.998 152.201L360.178 150.177Z" fill="#C1C3ED"/>
<path d="M357.247 156.216L427.373 210.732L418.03 222.75C415.876 225.52 412.71 227.322 409.228 227.759C405.747 228.195 402.234 227.23 399.464 225.077L329.339 170.561L338.865 158.308C341.048 155.626 344.195 153.906 347.63 153.515C351.066 153.124 354.518 154.094 357.247 156.216Z" fill="#C1C3ED"/>
<path d="M217.592 366.976L146.944 396.107C140.513 398.717 135.375 403.766 132.654 410.151C129.933 416.536 129.849 423.738 132.422 430.184L133.242 432.208L203.908 403.215C210.339 400.503 215.439 395.36 218.096 388.905C220.754 382.451 220.755 375.209 218.098 368.755L217.592 366.976Z" fill="#C1C3ED"/>
<path d="M94.2786 359.323L164.325 413.778L154.983 425.796C152.829 428.566 149.663 430.368 146.181 430.805C142.7 431.241 139.187 430.276 136.417 428.123L66.292 373.608L75.6345 361.59C77.7885 358.819 80.9545 357.017 84.4362 356.581C87.9179 356.144 91.4301 357.109 94.2001 359.262L94.2786 359.323Z" fill="#C1C3ED"/>
<path d="M145.186 502.737L155.856 427.104C156.387 423.705 156.237 420.234 155.415 416.893C154.593 413.552 153.115 410.409 151.067 407.644C149.02 404.88 146.443 402.55 143.487 400.791C140.531 399.031 137.255 397.877 133.849 397.394L131.764 397.16L120.954 472.81C120.423 476.209 120.573 479.68 121.395 483.02C122.217 486.361 123.695 489.505 125.742 492.269C127.79 495.034 130.366 497.363 133.322 499.123C136.278 500.883 139.555 502.037 142.961 502.519L145.186 502.737Z" fill="#C1C3ED"/>
<path d="M86.4673 409.076L75.6578 484.726C75.1268 488.126 75.2765 491.597 76.0985 494.937C76.9205 498.278 78.3982 501.422 80.4458 504.186C82.4934 506.951 85.0701 509.28 88.0261 511.04C90.982 512.799 94.2583 513.954 97.6646 514.436L99.8283 514.732L110.62 438.942C111.138 435.545 110.978 432.078 110.15 428.743C109.323 425.408 107.844 422.269 105.799 419.508C103.753 416.746 101.182 414.417 98.2326 412.654C95.2833 410.89 92.0141 409.728 88.6135 409.233L86.4673 409.076Z" fill="#C1C3ED"/>
<path d="M99.8851 478.357L29.5339 507.593C23.1027 510.306 18.0029 515.449 15.3451 521.904C12.6872 528.358 12.6865 535.6 15.3431 542.054L16.1635 544.078L86.8898 515.007C93.308 512.303 98.3964 507.17 101.044 500.728C103.691 494.287 103.682 487.059 101.019 480.625L99.8851 478.357Z" fill="#C1C3ED"/>
<path d="M96.9543 484.396L167.08 538.912L157.737 550.929C155.583 553.7 152.417 555.502 148.935 555.938C145.454 556.375 141.942 555.41 139.172 553.257L69.1248 498.802L78.4673 486.784C80.6106 484.027 83.7566 482.229 87.2196 481.782C90.6826 481.334 94.1819 482.274 96.9543 484.396Z" fill="#C1C3ED"/>
<path d="M349.043 204.53L278.456 233.583C272.008 236.275 266.891 241.416 264.23 247.877C261.569 254.339 261.582 261.592 264.266 268.043L265.086 270.067L335.812 240.997C342.23 238.293 347.319 233.16 349.966 226.718C352.614 220.276 352.605 213.049 349.942 206.615L349.043 204.53Z" fill="#C1C3ED"/>
<path d="M225.808 196.939L295.777 251.332L286.434 263.35C284.28 266.121 281.114 267.922 277.632 268.359C274.151 268.795 270.639 267.831 267.869 265.678L197.743 211.162L207.086 199.144C208.162 197.758 209.504 196.601 211.032 195.739C212.56 194.877 214.244 194.327 215.986 194.122C217.729 193.917 219.494 194.06 221.18 194.544C222.867 195.027 224.44 195.841 225.808 196.939Z" fill="#C1C3ED"/>
<path d="M276.637 340.291L287.368 264.58C287.899 261.181 287.749 257.71 286.927 254.369C286.105 251.028 284.627 247.884 282.58 245.12C280.532 242.356 277.955 240.026 275 238.266C272.044 236.507 268.767 235.352 265.361 234.87L263.276 234.635L252.527 310.207C252.01 313.604 252.17 317.071 252.997 320.406C253.825 323.742 255.304 326.88 257.349 329.642C259.395 332.403 261.966 334.732 264.915 336.496C267.865 338.259 271.134 339.422 274.534 339.917L276.637 340.291Z" fill="#C1C3ED"/>
<path d="M217.918 246.631L207.17 322.202C206.653 325.6 206.812 329.066 207.64 332.402C208.467 335.737 209.946 338.876 211.992 341.637C214.037 344.398 216.608 346.728 219.558 348.491C222.507 350.255 225.776 351.417 229.177 351.912L231.34 352.208L242.01 276.575C242.555 273.174 242.415 269.699 241.599 266.353C240.783 263.007 239.306 259.858 237.256 257.09C235.206 254.323 232.624 251.993 229.662 250.237C226.699 248.481 223.415 247.335 220.004 246.866L217.918 246.631Z" fill="#C1C3ED"/>
<path d="M231.397 315.833L160.671 344.904C154.252 347.607 149.164 352.74 146.517 359.182C143.869 365.624 143.878 372.851 146.541 379.285L147.361 381.309L218.027 352.317C224.458 349.605 229.558 344.462 232.216 338.007C234.874 331.553 234.874 324.311 232.218 317.857L231.397 315.833Z" fill="#C1C3ED"/>
<path d="M228.405 321.951L298.531 376.466L289.188 388.484C287.034 391.254 283.868 393.056 280.386 393.493C276.905 393.929 273.393 392.965 270.623 390.811L200.576 336.357L210.102 324.103C212.255 321.333 215.421 319.531 218.903 319.094C222.385 318.658 225.897 319.623 228.667 321.776L228.405 321.951Z" fill="#C1C3ED"/>
</g>
</svg>
