<svg width="48" height="48" viewBox="0 0 48 48" fill="none" xmlns="http://www.w3.org/2000/svg">
<path d="M47.5 24C47.5 11.0213 36.9787 0.5 24 0.5C11.0213 0.5 0.5 11.0213 0.5 24C0.5 36.9787 11.0213 47.5 24 47.5C36.9787 47.5 47.5 36.9787 47.5 24Z" stroke="#D6DDE6"/>
<path fill-rule="evenodd" clip-rule="evenodd" d="M24.2578 35.9315C21.9025 35.9315 20.808 35.5862 18.9054 34.2049C17.702 35.7588 13.8911 36.9733 13.7249 34.8955C13.7249 33.3358 13.3811 32.0178 12.9914 30.5789C12.5272 28.8062 12 26.832 12 23.9715C12 17.1397 17.5816 12 24.1948 12C30.8137 12 35.9999 17.3929 35.9999 24.0348C36.0221 30.574 30.7687 35.8966 24.2578 35.9315ZM24.3553 17.9052C21.1346 17.7383 18.6246 19.9772 18.0687 23.488C17.6103 26.3946 18.424 29.9342 19.1175 30.1184C19.4498 30.199 20.2865 29.5198 20.808 28.9961C21.6703 29.5944 22.6745 29.9537 23.7192 30.0378C27.0563 30.1991 29.9077 27.6475 30.1318 24.2996C30.2622 20.9446 27.6928 18.1029 24.3553 17.9109V17.9052Z" fill="url(#paint0_linear_2004_2482)"/>
<defs>
<linearGradient id="paint0_linear_2004_2482" x1="16.125" y1="15" x2="32.25" y2="36" gradientUnits="userSpaceOnUse">
<stop stop-color="#0073FA"/>
<stop offset="1" stop-color="#DA24FF"/>
</linearGradient>
</defs>
</svg>
