<svg width="34" height="34" viewBox="0 0 34 34" fill="none" xmlns="http://www.w3.org/2000/svg">
<path d="M23.65 0H9.68333C3.61667 0 0 3.61667 0 9.68333V23.6333C0 29.7167 3.61667 33.3333 9.68333 33.3333H23.6333C29.7 33.3333 33.3167 29.7167 33.3167 23.65V9.68333C33.3333 3.61667 29.7167 0 23.65 0ZM25.5833 11.75L21.6833 24.3167C20.75 27.3 16.5667 27.35 15.5833 24.3833L14.4167 20.9333C14.1 19.9833 13.35 19.2167 12.4 18.9167L8.93333 17.75C6 16.7667 6.03333 12.55 9.01667 11.65L21.5833 7.73333C24.05 6.98333 26.3667 9.3 25.5833 11.75Z" fill="#0073FA"/>
</svg>
