<svg width="48" height="48" viewBox="0 0 48 48" fill="none" xmlns="http://www.w3.org/2000/svg">
<path d="M47.5 24C47.5 11.0213 36.9787 0.5 24 0.5C11.0213 0.5 0.5 11.0213 0.5 24C0.5 36.9787 11.0213 47.5 24 47.5C36.9787 47.5 47.5 36.9787 47.5 24Z" stroke="#D6DDE6"/>
<path d="M12.096 16.1502C11.8712 18.133 12.0423 20.1434 12.598 22.0524C13.1538 23.9614 14.082 25.7268 15.3232 27.2354C16.6442 28.7432 18.2564 29.9352 20.0511 30.7311C21.8458 31.527 23.7815 31.9085 25.7278 31.8498C25.7278 30.0148 25.7278 28.169 25.6565 26.334C27.0982 26.4855 28.4599 27.1046 29.5539 28.1059C30.6479 29.1072 31.4203 30.4415 31.7649 31.9249L36 32C35.3496 29.8229 34.2431 27.8279 32.7626 26.1623C31.9946 25.2999 31.1296 24.5396 30.1869 23.8981C31.1885 23.2166 32.0818 22.3727 32.8338 21.3977C34.0225 19.854 34.8335 18.0263 35.1957 16.0751L31.3271 16C30.9783 17.5156 30.2787 18.9166 29.291 20.0778C28.342 21.1795 27.1644 22.0352 25.8499 22.5781L25.6972 16.1395L21.961 16.2254V26.892C20.312 26.062 18.9054 24.7795 17.8887 23.1791C16.5752 21.1104 15.9751 18.6293 16.1886 16.1502H12.096Z" fill="#308FFF"/>
</svg>
