<svg width="48" height="48" viewBox="0 0 48 48" fill="none" xmlns="http://www.w3.org/2000/svg">
<rect x="0.5" y="0.5" width="47" height="47" rx="23.5" fill="white"/>
<rect x="0.5" y="0.5" width="47" height="47" rx="23.5" stroke="#D6DDE6"/>
<path d="M24.0749 33.8872C23.9235 33.8863 23.775 33.8448 23.6449 33.7672C21.3389 32.4332 19.2004 30.8285 17.2749 28.9872C14.2749 26.0672 13.5149 24.2172 13.2749 23.6172C12.5251 22.0873 12.3341 20.3432 12.7349 18.6872C13.0183 17.7426 13.5185 16.8773 14.1957 16.1602C14.8728 15.4432 15.7081 14.8943 16.6349 14.5572C17.9151 14.1711 19.2801 14.167 20.5626 14.5454C21.8451 14.9237 22.9893 15.6681 23.8549 16.6872C24.9032 15.3018 26.4554 14.3855 28.1749 14.1372C29.672 14.0101 31.1693 14.3801 32.4348 15.19C33.7003 15.9999 34.6634 17.2045 35.1749 18.6172C35.6904 20.4026 35.5265 22.3156 34.7149 23.9872C33.807 25.9235 32.4981 27.6448 30.8749 29.0372C28.9459 30.8615 26.8037 32.4463 24.4949 33.7572C24.3682 33.8354 24.2237 33.8801 24.0749 33.8872ZM18.5549 15.9872C18.092 15.9881 17.6324 16.0658 17.1949 16.2172C16.5243 16.4659 15.92 16.866 15.4292 17.3863C14.9383 17.9067 14.5741 18.5332 14.3649 19.2172C14.0967 20.4942 14.2732 21.8244 14.8649 22.9872C15.7172 24.8065 16.94 26.4278 18.4549 27.7472C20.1601 29.3851 22.0454 30.8243 24.0749 32.0372C26.1051 30.8479 27.9938 29.4322 29.7049 27.8172C31.1413 26.5911 32.3061 25.0789 33.1249 23.3772C33.7941 22.0762 33.9648 20.5754 33.6049 19.1572C33.2267 18.1016 32.5092 17.2012 31.5646 16.5969C30.6201 15.9925 29.5019 15.7183 28.3849 15.8172C27.6012 15.9605 26.8594 16.2774 26.214 16.7445C25.5685 17.2117 25.0359 17.8174 24.6549 18.5172C24.5842 18.6461 24.482 18.755 24.3579 18.8337C24.2337 18.9124 24.0917 18.9583 23.9449 18.9672C23.7992 18.9736 23.6543 18.9419 23.5246 18.8753C23.3948 18.8087 23.2847 18.7094 23.2049 18.5872C22.6934 17.8144 22.0044 17.1752 21.1955 16.7229C20.3866 16.2706 19.4812 16.0183 18.5549 15.9872Z" fill="#2E3192"/>
</svg>
