<svg width="217" height="51" viewBox="0 0 217 51" fill="none" xmlns="http://www.w3.org/2000/svg">
<path d="M117.835 24.6643C112.702 25.118 108.436 25.3329 105.038 25.3329C104.142 25.4088 103.24 25.3084 102.384 25.0379C101.528 24.7675 100.734 24.3322 100.049 23.7568C99.4679 23.0774 99.0284 22.2909 98.7554 21.4427C98.4825 20.5944 98.3813 19.7008 98.4579 18.8137V7.85323C98.2902 5.97181 98.8792 4.10105 100.097 2.64773C100.824 2.04317 101.665 1.58637 102.57 1.30367C103.476 1.02096 104.429 0.917732 105.375 0.999926H117.835V5.77576H106.773C106.49 5.73054 106.201 5.75239 105.929 5.8396C105.656 5.92681 105.409 6.07692 105.206 6.27742C105.004 6.47792 104.853 6.72322 104.765 6.99304C104.677 7.26285 104.655 7.5494 104.7 7.82933V18.7901C104.68 19.2581 104.835 19.7168 105.134 20.0794C105.474 20.3712 105.913 20.5248 106.363 20.5093H107.954H109.737H111.617C112.268 20.5093 113.087 20.5093 114.027 20.5093L117.787 20.2706L117.835 24.6643ZM141.72 24.9986H135.502V5.89527H126.849V24.9986H120.631V1.11944H141.744L141.72 24.9986ZM153.168 20.0315C153.131 21.477 152.566 22.8601 151.577 23.9239C151.12 24.3795 150.575 24.739 149.975 24.9811C149.374 25.2232 148.731 25.343 148.083 25.3329C146.774 25.3367 145.467 25.2247 144.178 24.9986V20.3659H145.72C145.924 20.373 146.126 20.3361 146.313 20.2577C146.501 20.1794 146.668 20.0616 146.805 19.9123C147.103 19.6218 147.276 19.2279 147.287 18.8137L148.323 0.999926H167.605V24.8791H161.362V5.77576H154.132L153.168 20.0315ZM192.79 24.9986H186.572V10.2412L178.257 24.9986H171.678V1.11944H177.92V15.8527L186.235 1.11944H192.79V24.9986ZM208.745 24.9986H202.576V5.89527H195.345V1.11944H216.096V5.89527H208.866L208.745 24.9986Z" fill="#E61E1E"/>
<path d="M110.991 49.5465C107.568 49.833 104.724 50.0001 102.459 50.0001C101.862 50.0502 101.261 49.9833 100.69 49.803C100.119 49.6227 99.5902 49.3327 99.1328 48.9495C98.3586 48.0304 97.978 46.8477 98.0723 45.6542V38.3231C97.9604 37.0726 98.3501 35.8288 99.1569 34.8608C99.6419 34.4577 100.202 34.1532 100.806 33.9647C101.41 33.7762 102.045 33.7073 102.676 33.7621H110.991V36.9621H103.616C103.428 36.9348 103.236 36.9507 103.056 37.0091C102.875 37.0674 102.711 37.1664 102.575 37.2982C102.44 37.4301 102.337 37.5915 102.275 37.7693C102.213 37.9471 102.193 38.1365 102.218 38.3231V45.6542C102.211 45.8072 102.235 45.9598 102.289 46.1034C102.343 46.2469 102.425 46.3784 102.531 46.4899C102.748 46.6881 103.031 46.7989 103.326 46.8003H104.387H105.592H106.845H108.484L110.894 46.633L110.991 49.5465ZM126.921 49.7613H122.776V39.9231L117.233 49.7613H112.846V33.8816H116.992V43.7198L122.535 33.8816H126.921V49.7613ZM142.154 49.5465C138.731 49.833 135.887 50.0001 133.622 50.0001C133.025 50.0502 132.424 49.9833 131.853 49.803C131.282 49.6227 130.753 49.3327 130.296 48.9495C129.522 48.0304 129.141 46.8477 129.235 45.6542V38.3231C129.123 37.0726 129.513 35.8288 130.32 34.8608C130.808 34.4547 131.372 34.1486 131.98 33.96C132.588 33.7715 133.228 33.7041 133.863 33.7621H142.154V36.9621H134.779C134.591 36.9348 134.399 36.9507 134.219 37.0091C134.038 37.0674 133.874 37.1664 133.738 37.2982C133.603 37.4301 133.5 37.5915 133.438 37.7693C133.376 37.9471 133.356 38.1365 133.381 38.3231V45.6542C133.377 45.9616 133.489 46.2593 133.694 46.4899C133.911 46.6881 134.194 46.7989 134.489 46.8003H135.55H136.755H138.008H139.647L142.057 46.633L142.154 49.5465ZM151.794 49.7613H147.649V36.9621H142.828V33.8816H156.663V37.0814H151.842L151.794 49.7613ZM171.075 49.7613H158.277V33.8816H171.075V37.0814H162.423V40.1619H169.219V43.3616H162.423V46.6808H171.075V49.7613ZM186.765 40.8544L183.535 46.5616H180.306L177.076 40.8544V49.7613H172.907V33.8816H177.293L181.921 42.3349L186.524 33.8816H190.91V49.8805H186.765V40.8544ZM197.852 39.2544H203.154C203.781 39.1948 204.414 39.2613 205.014 39.45C205.615 39.6388 206.171 39.9459 206.649 40.3528C207.059 40.8261 207.369 41.377 207.56 41.972C207.75 42.567 207.818 43.1941 207.757 43.8154V45.2003C207.813 45.8251 207.743 46.4546 207.553 47.0528C207.363 47.651 207.055 48.2061 206.649 48.6866C205.672 49.4859 204.416 49.8722 203.154 49.7613H193.682V33.8816H197.755L197.852 39.2544ZM213.759 49.7613H209.613V33.8816H213.759V49.7613ZM203.612 43.8154C203.641 43.6302 203.625 43.4409 203.566 43.2628C203.507 43.0847 203.407 42.9228 203.273 42.7903C203.139 42.6577 202.976 42.5583 202.796 42.4999C202.616 42.4416 202.425 42.4258 202.238 42.4542H197.755V46.5616H202.142C202.329 46.59 202.52 46.5742 202.7 46.5158C202.879 46.4575 203.043 46.358 203.176 46.2255C203.31 46.093 203.411 45.9311 203.469 45.753C203.528 45.5749 203.544 45.3856 203.516 45.2003L203.612 43.8154Z" fill="#2E3192"/>
<path d="M75.4095 0H9.59049C4.29381 0 0 4.25164 0 9.49631V39.5037C0 44.7484 4.29381 49 9.59049 49H75.4095C80.7062 49 85 44.7484 85 39.5037V9.49631C85 4.25164 80.7062 0 75.4095 0Z" fill="#2E3192"/>
<path d="M39.8711 18.8719V35.1651C40.1108 36.8016 40.9098 38.3073 42.1348 39.4312C42.7248 39.96 43.4181 40.3635 44.1717 40.6164C44.9253 40.8693 45.7232 40.9661 46.5162 40.9014V24.1504C46.1567 23.2725 45.6553 22.4585 45.0314 21.7402C43.7508 20.1591 41.9012 19.1309 39.8711 18.8719Z" fill="white"/>
<path d="M30.7187 32.779C30.6547 33.9725 30.3402 35.1399 29.7954 36.2064C29.2506 37.2729 28.4874 38.2152 27.5544 38.9735C25.9066 40.3286 23.8026 41.0171 21.6638 40.9015C16.9659 40.9015 12.2924 40.9015 7.66754 40.9015C7.66754 36.3221 7.66754 31.7186 7.66754 27.1151V18.9926C9.23089 19.2579 10.7031 19.904 11.9516 20.8726C12.9559 21.6793 13.784 22.6797 14.3858 23.813V34.9966H21.6882C22.3338 34.9966 22.9529 34.7427 23.4093 34.2907C23.8658 33.8387 24.1223 33.2256 24.1223 32.5863C24.1488 32.2456 24.1065 31.9031 23.9981 31.5786C23.8897 31.2541 23.7172 30.9542 23.4908 30.6963C23.2643 30.4384 22.9883 30.2274 22.6788 30.0761C22.3694 29.9247 22.0327 29.8358 21.6882 29.8145C20.5554 29.6327 19.4853 29.1776 18.5724 28.489C17.1607 27.4196 16.1914 25.877 15.8462 24.1505H21.6882C22.8693 24.065 24.0553 24.2269 25.1688 24.626C26.2824 25.0251 27.2985 25.6523 28.1507 26.4666C29.0029 27.2809 29.6722 28.264 30.1147 29.3517C30.5572 30.4394 30.763 31.6072 30.7187 32.779Z" fill="white"/>
<path d="M7.59448 10.0507H54.622C54.9672 10.0507 55.3091 10.118 55.628 10.2488C55.947 10.3796 56.2368 10.5714 56.4809 10.8131C56.725 11.0548 56.9186 11.3417 57.0507 11.6576C57.1828 11.9734 57.2509 12.3119 57.2509 12.6537V16.5583H10.2477C9.90042 16.5615 9.55595 16.4965 9.23419 16.3671C8.91243 16.2377 8.61974 16.0465 8.37305 15.8044C8.12635 15.5624 7.93053 15.2744 7.7969 14.957C7.66326 14.6396 7.59447 14.2991 7.59448 13.9552V10.0507Z" fill="white"/>
<path d="M73.024 39.9615C72.2471 40.5543 71.3024 40.8914 70.3222 40.9257H45.9808V38.0576H74.4115C74.1281 38.8031 73.6492 39.4601 73.024 39.9615Z" fill="white"/>
<path d="M77.6002 32.9238C77.3105 33.2913 76.9418 33.59 76.5207 33.7985C76.0996 34.007 75.6368 34.12 75.166 34.1289H45.9564V31.2606H78.2331C78.202 31.8666 77.9807 32.4481 77.6002 32.9238Z" fill="white"/>
</svg>
